<svg width="22" height="20" viewBox="0 0 22 20" fill="none" xmlns="http://www.w3.org/2000/svg">
<path d="M11.0009 1.65429C13.5848 -0.627558 17.5777 -0.551821 20.0669 1.90098C22.5551 4.35487 22.6409 8.2629 20.3265 10.812L10.9987 20L1.67308 10.812C-0.641282 8.2629 -0.554383 4.34837 1.93267 1.90098C4.42412 -0.548575 8.40935 -0.630804 11.0009 1.65429ZM18.5094 3.42979C16.8594 1.80469 14.1974 1.73869 12.4705 3.26425L11.002 4.56044L9.53243 3.26533C7.79996 1.73761 5.14351 1.80469 3.48914 3.43195C1.85017 5.04407 1.76767 7.62455 3.27795 9.32971L10.9998 16.937L18.7217 9.3308C20.233 7.62455 20.1505 5.04732 18.5094 3.42979Z" fill="#FF0000"/>
<path d="M11.0007 2.32344C13.1148 0.497953 16.3817 0.558543 18.4184 2.52078C20.4542 4.48389 20.5244 7.61032 18.6308 9.6496L10.9989 17L3.36888 9.6496C1.47532 7.61032 1.54641 4.4787 3.58128 2.52078C5.61974 0.56114 8.88038 0.495357 11.0007 2.32344ZM17.144 3.74383C15.794 2.44375 13.6161 2.39095 12.2031 3.6114L11.0016 4.64835L9.79926 3.61227C8.38179 2.39008 6.20833 2.44375 4.85475 3.74556C3.51378 5.03526 3.44628 7.09964 4.68196 8.46377L10.9998 14.5496L17.3177 8.46464C18.5543 7.09964 18.4868 5.03786 17.144 3.74383Z" fill="#FF0000"/>
<path d="M2.5 2.5H20.5L14.5 15L10.5 17L4.5 11.5L2.5 2.5Z" fill="#FF0000"/>
</svg>
